<svg width="120" height="28.50356294536817" viewBox="0 0 170 30" xmlns="http://www.w3.org/2000/svg" xmlns:xlink="http://www.w3.org/1999/xlink" class="sc-bdVaJa containers__Box-aqsfkq-0 blogEq"><use xlink:href="#sa_logo_with_name_path0_fill" fill="#fff"></use><use xlink:href="#sa_logo_with_name_path1_fill" fill="#fff"></use><use xlink:href="#sa_logo_with_name_path2_fill" fill="#fff"></use><use xlink:href="#sa_logo_with_name_path3_fill" fill="#fff"></use><use xlink:href="#sa_logo_with_name_path4_fill" fill="#fff"></use><use xlink:href="#sa_logo_with_name_path5_fill" fill="#fff"></use><use xlink:href="#sa_logo_with_name_path6_fill" fill="#fff"></use><use xlink:href="#sa_logo_with_name_path7_fill" fill="#fff"></use><use xlink:href="#sa_logo_with_name_path8_fill" fill="#fff"></use><use xlink:href="#sa_logo_with_name_path9_fill"></use><use xlink:href="#sa_logo_with_name_path10_fill"></use><use xlink:href="#sa_logo_with_name_path11_fill"></use><defs><path id="sa_logo_with_name_path0_fill" d="M17.6278 19.5039C17.6596 20.7252 17.4081 21.9372 16.8931 23.0451C16.4231 24.0188 15.7424 24.8758 14.9003 25.554C14.0338 26.2372 13.0425 26.745 11.9818 27.0491C10.8334 27.3879 9.64163 27.5568 8.44432 27.5505C6.80257 27.5454 5.17618 27.234 3.6487 26.6321C2.31339 26.136 1.1091 25.3413 0.12775 24.3087C0.0403721 24.2119 -0.00534555 24.0845 0.000498613 23.9543C0.00634278 23.824 0.0632779 23.7012 0.158973 23.6126L2.61464 21.3223C2.66232 21.2768 2.71867 21.2414 2.78033 21.2182C2.84199 21.1949 2.9077 21.1844 2.97353 21.1871C3.03936 21.1899 3.10396 21.2059 3.16347 21.2341C3.22299 21.2624 3.2762 21.3023 3.31993 21.3516C3.91867 22.0408 4.65507 22.597 5.48173 22.9845C6.42566 23.4614 7.46583 23.717 8.5233 23.732C9.06303 23.7295 9.60059 23.6636 10.1249 23.5355C10.652 23.4116 11.1507 23.1884 11.5943 22.8779C12.0295 22.5734 12.3941 22.1788 12.6632 21.7208C12.952 21.1924 13.0935 20.5961 13.0728 19.9943C13.0946 19.4085 12.9328 18.8306 12.61 18.3413C12.2776 17.8801 11.8537 17.4924 11.3647 17.2025C10.7811 16.8549 10.16 16.5745 9.51328 16.3668L7.27067 15.6193C6.49638 15.3767 5.73605 15.0916 4.99316 14.7652C4.24426 14.4401 3.55321 13.9953 2.94708 13.4483C2.32877 12.882 1.82929 12.1983 1.47772 11.4371C1.10181 10.6461 0.913857 9.65737 0.913857 8.47086C0.913857 7.18885 1.18079 6.08683 1.71466 5.1648C2.23463 4.25265 2.95189 3.46824 3.814 2.86893C4.71189 2.24874 5.71146 1.7906 6.76742 1.51528C7.86405 1.22019 8.99476 1.07074 10.1304 1.0708C11.458 1.07897 12.7751 1.30738 14.0279 1.74671C15.1387 2.12024 16.172 2.69351 17.0768 3.43831C17.1268 3.48172 17.1676 3.53475 17.1967 3.59424C17.2259 3.65374 17.2427 3.71848 17.2463 3.78462C17.2499 3.85076 17.2402 3.91694 17.2177 3.97925C17.1952 4.04155 17.1604 4.09869 17.1154 4.14727L14.9113 6.56804C14.8668 6.61754 14.8126 6.65741 14.7521 6.68521C14.6916 6.71301 14.6261 6.72815 14.5595 6.7297C14.4929 6.73125 14.4268 6.71917 14.365 6.69421C14.3033 6.66926 14.2473 6.63195 14.2005 6.58457C13.7148 6.10472 13.1493 5.71315 12.5291 5.42745C11.7157 5.02463 10.8214 4.81173 9.91368 4.80481C9.38537 4.80599 8.85921 4.87199 8.34698 5.00134C7.84301 5.12468 7.36232 5.32874 6.92354 5.60561C6.49785 5.87756 6.1393 6.24239 5.87478 6.67273C5.59087 7.15163 5.44882 7.70132 5.4652 8.2578C5.44971 8.76722 5.57287 9.27127 5.82152 9.71614C6.06649 10.1291 6.40103 10.4819 6.80048 10.7484C7.27024 11.0613 7.77827 11.3125 8.31208 11.4959C8.90595 11.709 9.55859 11.9226 10.27 12.1369C11.0757 12.3977 11.912 12.694 12.7789 13.0259C13.6326 13.3508 14.4364 13.7941 15.1666 14.3428C15.8981 14.8985 16.5045 15.6019 16.9464 16.4072C17.4007 17.2374 17.6278 18.2697 17.6278 19.5039Z" fill="#fff"></path><path id="sa_logo_with_name_path1_fill" d="M20.4104 9.33043V5.36867C20.4104 5.23813 20.4623 5.11292 20.5546 5.02061C20.6469 4.9283 20.7721 4.87643 20.9027 4.87643H24.1169C24.2474 4.87643 24.3726 4.9283 24.465 5.02061C24.5573 5.11292 24.6091 5.23813 24.6091 5.36867V9.33043C24.6091 9.46098 24.661 9.58618 24.7533 9.67849C24.8456 9.77081 24.9708 9.82267 25.1014 9.82267H28.3891C28.5196 9.82267 28.6448 9.87453 28.7371 9.96684C28.8294 10.0592 28.8813 10.1844 28.8813 10.3149V12.7467C28.8813 12.8772 28.8294 13.0024 28.7371 13.0948C28.6448 13.1871 28.5196 13.2389 28.3891 13.2389H25.1014C24.9708 13.2389 24.8456 13.2908 24.7533 13.3831C24.661 13.4754 24.6091 13.6006 24.6091 13.7312V21.1771C24.586 21.8302 24.7268 22.4787 25.0187 23.0634C25.2918 23.5606 25.904 23.8097 26.8554 23.811C27.1635 23.8075 27.4708 23.7774 27.7738 23.721C27.884 23.7008 27.9905 23.6787 28.0933 23.653C28.1637 23.6366 28.2367 23.6361 28.3073 23.6515C28.3778 23.6668 28.4441 23.6977 28.5012 23.7418C28.5584 23.786 28.605 23.8423 28.6377 23.9066C28.6704 23.971 28.6883 24.0418 28.6903 24.114L28.7895 26.4264C28.7942 26.5375 28.7615 26.647 28.6965 26.7373C28.6316 26.8276 28.5382 26.8934 28.4313 26.9242C28.1103 27.0152 27.7839 27.0863 27.4542 27.1372C26.9599 27.2187 26.46 27.2605 25.9591 27.2621C24.8203 27.2621 23.8947 27.1023 23.182 26.7827C22.515 26.4963 21.933 26.0427 21.4922 25.4658C21.0713 24.8944 20.7799 24.2382 20.6382 23.5428C20.4796 22.7761 20.402 21.9949 20.4068 21.212V9.33043H20.4104Z" fill="#fff"></path><path id="sa_logo_with_name_path2_fill" d="M44.4804 11.6373C43.8459 10.9036 43.0465 10.3308 42.1478 9.96594C41.1682 9.53737 39.9168 9.3237 38.3936 9.32493C37.0787 9.3277 35.774 9.55633 34.5365 10.0008C33.443 10.3849 32.4276 10.9629 31.539 11.7071C31.4404 11.7926 31.3797 11.9138 31.3704 12.044C31.3611 12.1742 31.4039 12.3027 31.4894 12.4014L33.0469 14.2381C33.1308 14.3372 33.2504 14.3992 33.3798 14.4106C33.5091 14.4219 33.6377 14.3817 33.7375 14.2987C34.2555 13.8695 34.8295 13.513 35.4438 13.2389C36.2581 12.8634 37.1442 12.6691 38.0409 12.6696C39.0151 12.644 39.9747 12.9108 40.796 13.4355C41.5674 13.9461 41.9531 14.7352 41.9531 15.803V16.2291C40.6233 16.2291 39.2648 16.2946 37.8774 16.4256C36.5856 16.5352 35.3123 16.8042 34.0865 17.2264C33.0305 17.5782 32.073 18.1755 31.2929 18.9694C30.5692 19.7298 30.2074 20.7504 30.2074 22.0312C30.2074 23.0267 30.4149 23.863 30.83 24.5401C31.2246 25.1949 31.7597 25.7539 32.3967 26.1766C33.0271 26.5929 33.7259 26.8944 34.4612 27.0674C35.1658 27.2401 35.8883 27.3295 36.6138 27.3338C37.7364 27.3517 38.8469 27.0997 39.8519 26.5991C40.8009 26.1093 41.489 25.486 41.9163 24.7293H42.0247V26.4062C42.0247 26.4713 42.0376 26.5357 42.0625 26.5957C42.0874 26.6558 42.124 26.7103 42.1701 26.7562C42.2161 26.8021 42.2708 26.8385 42.331 26.8632C42.3911 26.8879 42.4556 26.9005 42.5206 26.9003H45.5144C45.5795 26.9005 45.6439 26.8879 45.7041 26.8632C45.7642 26.8385 45.8189 26.8021 45.865 26.7562C45.9111 26.7103 45.9476 26.6558 45.9726 26.5957C45.9975 26.5357 46.0103 26.4713 46.0103 26.4062V16.5138C46.0077 15.6512 45.8941 14.7925 45.6724 13.9589C45.4502 13.107 45.0432 12.3144 44.4804 11.6373V11.6373ZM41.9531 19.7188C41.9531 21.0657 41.5735 22.1334 40.8143 22.922C40.0552 23.7106 38.9384 24.1018 37.4642 24.0957C37.1059 24.0948 36.7485 24.0591 36.3971 23.9891C36.0594 23.9241 35.7349 23.8037 35.4365 23.6328C35.1564 23.4707 34.9185 23.2448 34.7422 22.9734C34.5549 22.6693 34.4616 22.3166 34.474 21.9596C34.4606 21.6754 34.5112 21.3918 34.6222 21.1298C34.7331 20.8679 34.9016 20.6342 35.1151 20.4461C35.5854 20.0556 36.1303 19.765 36.7167 19.5921C37.4003 19.3838 38.1051 19.2526 38.8178 19.2009C39.5758 19.1421 40.2988 19.1127 40.987 19.1127H41.9494L41.9531 19.7188Z" fill="#fff"></path><path id="sa_logo_with_name_path3_fill" d="M59.8976 18.1337C59.3527 17.7364 58.754 17.4186 58.1197 17.1897C57.4859 16.9589 56.8381 16.7687 56.1801 16.6203C55.24 16.4194 54.3184 16.1398 53.4251 15.7846C53.1382 15.6814 52.8919 15.4893 52.722 15.2361C52.5522 14.983 52.4677 14.6822 52.481 14.3777C52.4634 14.0818 52.5358 13.7875 52.6885 13.5334C52.8413 13.2794 53.0673 13.0775 53.3369 12.9542C53.9228 12.6658 54.5684 12.5198 55.2214 12.5281C55.981 12.5219 56.7293 12.7117 57.3942 13.0791C57.8609 13.3309 58.2875 13.6509 58.6597 14.0287C58.7476 14.1179 58.8665 14.1698 58.9917 14.1736C59.1169 14.1773 59.2388 14.1327 59.3319 14.0489L61.367 12.2489C61.4171 12.2039 61.4576 12.1493 61.4862 12.0883C61.5148 12.0273 61.5308 11.9612 61.5334 11.8939C61.536 11.8265 61.525 11.7594 61.5012 11.6964C61.4773 11.6334 61.441 11.5758 61.3945 11.5271C60.7104 10.8214 59.8698 10.2866 58.9407 9.96592C57.7835 9.54124 56.5605 9.32423 55.3279 9.32491C54.4874 9.32328 53.6502 9.43071 52.8373 9.6445C52.063 9.84431 51.3287 10.1754 50.6663 10.6235C50.0269 11.0607 49.4971 11.6395 49.118 12.3151C48.7102 13.0679 48.5075 13.9148 48.5303 14.7707C48.5086 15.4688 48.6554 16.1618 48.9582 16.7911C49.2331 17.3256 49.6218 17.7933 50.097 18.1613C50.5882 18.5393 51.1346 18.8397 51.7169 19.0521C52.3259 19.2794 52.9501 19.4635 53.5849 19.6031C54.5919 19.813 55.5762 20.1206 56.5236 20.5214C56.8244 20.6447 57.0798 20.8578 57.255 21.1316C57.4302 21.4054 57.5166 21.7266 57.5025 22.0514C57.5133 22.3889 57.4266 22.7224 57.2527 23.012C57.089 23.2712 56.8629 23.4852 56.5952 23.6346C56.3169 23.7918 56.0167 23.9063 55.7044 23.9744C55.3951 24.0436 55.0792 24.0793 54.7622 24.0809C53.8825 24.0921 53.0138 23.8838 52.2349 23.4748C51.6618 23.1773 51.1427 22.7855 50.6994 22.3159C50.6097 22.2222 50.4866 22.1677 50.357 22.1643C50.2273 22.1609 50.1015 22.2087 50.007 22.2975L47.9333 24.2444C47.8846 24.2893 47.8455 24.3436 47.8183 24.4041C47.7912 24.4646 47.7766 24.5299 47.7753 24.5961C47.7741 24.6624 47.7864 24.7282 47.8113 24.7896C47.8363 24.851 47.8734 24.9067 47.9205 24.9534C48.7234 25.7039 49.6665 26.2887 50.6957 26.6744C51.9319 27.158 53.2474 27.4072 54.5748 27.409C55.4792 27.4113 56.3808 27.3096 57.2619 27.106C58.0761 26.9265 58.8489 26.5943 59.5394 26.127C60.1944 25.6735 60.731 25.0695 61.1043 24.3656C61.5193 23.5448 61.7214 22.6328 61.6921 21.7134C61.7147 20.9761 61.5431 20.2458 61.1943 19.5957C60.8705 19.0221 60.4285 18.5237 59.8976 18.1337Z" fill="#fff"></path><path id="sa_logo_with_name_path4_fill" d="M78.3252 11.461C77.7958 10.8072 77.1268 10.28 76.3673 9.91817C75.4703 9.50406 74.4897 9.30291 73.5021 9.33043C72.8997 9.32462 72.2998 9.40882 71.7223 9.58022C71.2084 9.73167 70.7177 9.95291 70.264 10.2378C69.8533 10.4954 69.4769 10.804 69.1436 11.1561C68.845 11.4655 68.5971 11.8201 68.4089 12.2067H68.3391V0.494072C68.3391 0.363036 68.287 0.237365 68.1944 0.144708C68.1017 0.0520519 67.9761 0 67.845 0H64.5647C64.4337 0 64.308 0.0520519 64.2153 0.144708C64.1227 0.237365 64.0706 0.363036 64.0706 0.494072V26.4136C64.0711 26.5443 64.1234 26.6695 64.216 26.7617C64.3086 26.854 64.434 26.9058 64.5647 26.9058H67.8487C67.9794 26.9058 68.1048 26.854 68.1974 26.7617C68.29 26.6695 68.3423 26.5443 68.3428 26.4136V17.5827C68.3422 17.0158 68.4258 16.4519 68.5907 15.9095C68.7507 15.3792 69.0039 14.8817 69.3383 14.4401C69.6699 14.0015 70.0954 13.6426 70.5836 13.3895C71.1362 13.1164 71.7471 12.9821 72.3633 12.9983C73.0527 12.9983 73.6037 13.1404 74.0163 13.4244C74.4233 13.6991 74.7538 14.0726 74.9769 14.5099C75.2083 14.9675 75.3593 15.4614 75.4233 15.9701C75.4923 16.4833 75.5279 17.0006 75.5298 17.5184V26.4209C75.5298 26.4857 75.5426 26.5499 75.5674 26.6097C75.5923 26.6696 75.6287 26.7239 75.6746 26.7696C75.7205 26.8154 75.775 26.8516 75.8349 26.8762C75.8948 26.9008 75.9591 26.9134 76.0238 26.9132H79.306C79.3708 26.9134 79.435 26.9008 79.495 26.8762C79.5549 26.8516 79.6094 26.8154 79.6553 26.7696C79.7012 26.7239 79.7376 26.6696 79.7625 26.6097C79.7873 26.5499 79.8001 26.4857 79.8001 26.4209V16.2291C79.8014 15.3626 79.6814 14.5001 79.4438 13.6669C79.222 12.8643 78.8417 12.1142 78.3252 11.461V11.461Z" fill="#fff"></path><path id="sa_logo_with_name_path5_fill" d="M96.3487 2.00751C96.3107 1.91872 96.2474 1.84304 96.1668 1.78983C96.0862 1.73662 95.9917 1.70821 95.8951 1.70813H92.6643C92.568 1.70829 92.4738 1.73652 92.3932 1.78937C92.3126 1.84221 92.2492 1.91737 92.2107 2.00568L81.6809 26.2134C81.6478 26.2887 81.6342 26.371 81.641 26.4529C81.6479 26.5348 81.675 26.6137 81.7201 26.6825C81.7651 26.7513 81.8266 26.8077 81.899 26.8467C81.9714 26.8857 82.0523 26.906 82.1345 26.9058H86.0596C86.1589 26.9061 86.256 26.8765 86.3382 26.8208C86.4205 26.7651 86.484 26.6859 86.5206 26.5936L88.5409 21.4508C88.5776 21.3584 88.6411 21.2791 88.7233 21.2231C88.8055 21.1671 88.9025 21.1371 89.0019 21.1367H99.2691C99.3673 21.1371 99.4632 21.1666 99.5446 21.2215C99.6261 21.2765 99.6893 21.3544 99.7264 21.4453L101.824 26.5881C101.861 26.6789 101.925 26.7566 102.007 26.8112C102.089 26.8659 102.185 26.8949 102.283 26.8948H106.324C106.406 26.8952 106.487 26.875 106.559 26.8363C106.632 26.7975 106.693 26.7413 106.739 26.6728C106.784 26.6042 106.811 26.5255 106.818 26.4437C106.825 26.3618 106.812 26.2795 106.779 26.2042L96.3487 2.00751ZM97.3185 17.2962H90.9268C90.8464 17.2965 90.7671 17.2772 90.6958 17.2399C90.6245 17.2027 90.5635 17.1486 90.5178 17.0823C90.4722 17.0161 90.4435 16.9397 90.4341 16.8598C90.4247 16.7799 90.435 16.699 90.464 16.624L93.6892 8.26515C93.7264 8.17391 93.79 8.09583 93.8718 8.04086C93.9535 7.9859 94.0498 7.95655 94.1484 7.95655C94.2469 7.95655 94.3432 7.9859 94.425 8.04086C94.5068 8.09583 94.5703 8.17391 94.6076 8.26515L97.774 16.6313C97.8013 16.7054 97.8105 16.7849 97.8007 16.8632C97.791 16.9415 97.7626 17.0163 97.718 17.0814C97.6734 17.1465 97.6139 17.2 97.5444 17.2374C97.4749 17.2747 97.3974 17.2949 97.3185 17.2962V17.2962Z" fill="#fff"></path><path id="sa_logo_with_name_path6_fill" d="M132.728 9.82266H129.341C129.235 9.82297 129.131 9.85762 129.046 9.92147C128.96 9.98532 128.898 10.075 128.868 10.1771L125.343 22.0661H125.271L121.677 10.1735C121.646 10.072 121.583 9.98314 121.498 9.92C121.412 9.85685 121.309 9.82274 121.203 9.82266H117.383C117.276 9.82256 117.173 9.85683 117.087 9.92037C117.002 9.98391 116.939 10.0733 116.909 10.1753L113.347 22.0661H113.278L109.83 10.179C109.801 10.0762 109.738 9.98577 109.653 9.92148C109.567 9.85718 109.463 9.8225 109.356 9.82266H105.789C105.71 9.82262 105.633 9.8415 105.562 9.87772C105.492 9.91394 105.432 9.96644 105.386 10.0308C105.34 10.0952 105.311 10.1696 105.3 10.2478C105.289 10.326 105.297 10.4057 105.323 10.4802L110.923 26.5752C110.957 26.6719 111.02 26.7556 111.104 26.8148C111.187 26.8741 111.287 26.9058 111.389 26.9058H115.021C115.125 26.9058 115.227 26.8728 115.311 26.8114C115.396 26.7501 115.459 26.6635 115.491 26.5642L119.225 14.9489H119.296L123.054 26.5642C123.087 26.6633 123.15 26.7497 123.234 26.8111C123.319 26.8724 123.42 26.9056 123.525 26.9058H127.156C127.259 26.9061 127.359 26.8742 127.443 26.8146C127.527 26.755 127.59 26.6707 127.624 26.5733L133.189 10.4784C133.215 10.4044 133.223 10.3254 133.212 10.2479C133.201 10.1704 133.172 10.0966 133.127 10.0325C133.082 9.9685 133.022 9.91608 132.953 9.87959C132.883 9.8431 132.807 9.82359 132.728 9.82266V9.82266Z" fill="#fff"></path><path id="sa_logo_with_name_path7_fill" d="M147.791 11.6373C147.158 10.9032 146.359 10.3303 145.46 9.96594C144.481 9.53737 143.229 9.3237 141.706 9.32493C140.391 9.32773 139.086 9.55636 137.849 10.0008C136.755 10.3844 135.739 10.9632 134.851 11.709C134.803 11.7508 134.762 11.802 134.733 11.8594C134.704 11.9168 134.687 11.9794 134.682 12.0436C134.677 12.1077 134.685 12.1722 134.706 12.2333C134.726 12.2944 134.758 12.3509 134.8 12.3996L136.363 14.2363C136.446 14.3351 136.565 14.3969 136.693 14.4083C136.821 14.4196 136.949 14.3796 137.048 14.2969C137.567 13.8671 138.141 13.5099 138.756 13.2353C139.571 12.8597 140.458 12.6655 141.355 12.6659C142.329 12.6406 143.289 12.9073 144.11 13.4318C144.88 13.9424 145.266 14.7316 145.266 15.7993V16.2254C143.938 16.2254 142.58 16.2909 141.192 16.4219C139.9 16.5314 138.627 16.8004 137.401 17.2227C136.345 17.5745 135.387 18.1719 134.607 18.9658C133.885 19.7286 133.523 20.7535 133.523 22.0404C133.523 23.0359 133.731 23.8722 134.146 24.5493C134.541 25.2037 135.075 25.7626 135.711 26.1858C136.341 26.6017 137.04 26.9033 137.775 27.0766C138.481 27.2493 139.204 27.3387 139.93 27.3429C141.053 27.3607 142.163 27.1087 143.168 26.6083C144.117 26.1185 144.805 25.4952 145.232 24.7385H145.339V26.4173C145.339 26.482 145.352 26.5462 145.377 26.606C145.402 26.6659 145.438 26.7202 145.484 26.766C145.53 26.8117 145.584 26.8479 145.644 26.8725C145.704 26.8972 145.768 26.9097 145.833 26.9095H148.832C148.963 26.9095 149.088 26.8576 149.18 26.7653C149.273 26.673 149.325 26.5478 149.325 26.4173V16.5174C149.322 15.6534 149.207 14.7934 148.983 13.9589C148.761 13.107 148.354 12.3144 147.791 11.6373V11.6373ZM145.264 19.7188C145.264 21.0657 144.884 22.1335 144.125 22.922C143.366 23.7106 142.251 24.1024 140.78 24.0975C140.422 24.0968 140.065 24.0611 139.713 23.991C139.375 23.9259 139.05 23.8055 138.751 23.6346C138.471 23.4725 138.233 23.2466 138.056 22.9753C137.871 22.6706 137.778 22.3181 137.79 21.9614C137.776 21.6772 137.827 21.3935 137.938 21.1315C138.049 20.8694 138.217 20.6358 138.431 20.448C138.901 20.0571 139.446 19.7664 140.033 19.5939C140.716 19.3856 141.42 19.2544 142.132 19.2027C142.893 19.1439 143.614 19.1145 144.303 19.1145H145.264V19.7188Z" fill="#fff"></path><path id="sa_logo_with_name_path8_fill" d="M167.738 9.82266H164.367C164.264 9.82289 164.163 9.85541 164.079 9.91567C163.995 9.97594 163.932 10.0609 163.899 10.1588L159.788 22.2443H159.717L155.07 10.1404C155.034 10.0469 154.97 9.96646 154.888 9.90973C154.805 9.85301 154.707 9.82265 154.607 9.82266H150.956C150.874 9.82276 150.793 9.84316 150.721 9.88205C150.649 9.92095 150.587 9.97711 150.542 10.0455C150.497 10.1139 150.47 10.1925 150.462 10.2741C150.455 10.3557 150.468 10.4379 150.5 10.5133L157.456 26.7184C157.505 26.8397 157.505 26.9756 157.456 27.0968L156.677 29.0768C156.486 29.5286 156.308 29.9204 156.142 30.2523C155.994 30.557 155.802 30.8385 155.573 31.088C155.356 31.3151 155.088 31.4865 154.791 31.5875C154.422 31.7028 154.038 31.7568 153.652 31.7473C153.396 31.7458 153.14 31.728 152.886 31.6941C152.791 31.6812 152.702 31.6647 152.599 31.6463C152.531 31.6309 152.46 31.6302 152.391 31.6441C152.322 31.6581 152.257 31.6865 152.199 31.7274C152.142 31.7683 152.094 31.8209 152.059 31.8816C152.023 31.9423 152.001 32.0098 151.993 32.0798L151.736 34.7614C151.725 34.8855 151.761 35.0094 151.836 35.1086C151.912 35.2078 152.021 35.2753 152.144 35.2977C152.37 35.3418 152.594 35.373 152.814 35.395C153.182 35.4293 153.544 35.4471 153.9 35.4483C154.724 35.4653 155.547 35.3575 156.339 35.1287C156.982 34.9315 157.58 34.6108 158.1 34.1846C158.615 33.7532 159.05 33.2355 159.386 32.6547C159.772 31.9874 160.106 31.291 160.383 30.5719L168.199 10.4986C168.228 10.4235 168.238 10.3424 168.229 10.2624C168.22 10.1823 168.192 10.1057 168.146 10.0391C168.101 9.97257 168.04 9.91807 167.969 9.88036C167.897 9.84264 167.818 9.82284 167.738 9.82266Z" fill="#fff"></path><path id="sa_logo_with_name_path9_fill" d="M18.5278 4.67805C18.4804 4.63399 18.4248 4.5997 18.3642 4.57715C18.3036 4.55459 18.2391 4.54421 18.1744 4.5466C18.1098 4.54899 18.0462 4.5641 17.9874 4.59107C17.9286 4.61803 17.8757 4.65632 17.8317 4.70376L11.3041 11.7548C11.8165 11.9385 12.3381 12.1222 12.8634 12.3205L18.9503 5.74884C19.0389 5.65263 19.0859 5.5253 19.0811 5.39458C19.0763 5.26385 19.02 5.14032 18.9245 5.0509L18.5278 4.67805Z" fill="#4D91DD"></path><path id="sa_logo_with_name_path10_fill" d="M13.2822 8.27616C13.3265 8.22847 13.3609 8.17251 13.3835 8.11148C13.4061 8.05045 13.4164 7.98557 13.4138 7.92055C13.4113 7.85552 13.3959 7.79165 13.3686 7.73258C13.3413 7.67352 13.3025 7.62044 13.2547 7.57638L12.8634 7.20904C12.8156 7.16471 12.7595 7.13025 12.6983 7.10764C12.6371 7.08502 12.5721 7.0747 12.5069 7.07726C12.4417 7.07981 12.3777 7.0952 12.3185 7.12255C12.2593 7.14989 12.206 7.18864 12.1618 7.23659L8.75842 10.91C9.24515 11.0808 9.78146 11.2553 10.3582 11.4298L13.2822 8.27616Z" fill="#4D91DD"></path><path id="sa_logo_with_name_path11_fill" d="M7.19164 10.1715C7.41715 10.3233 7.65418 10.4571 7.90057 10.5719L9.50943 8.8363C9.59862 8.74001 9.646 8.61228 9.64118 8.48112C9.63636 8.34995 9.57974 8.22605 9.48372 8.13656L9.09069 7.76924C8.99416 7.68028 8.86629 7.63322 8.73512 7.63838C8.60395 7.64355 8.48018 7.70052 8.39094 7.79679L6.64801 9.67747C6.80592 9.8661 6.98881 10.0323 7.19164 10.1715V10.1715Z" fill="#4D91DD"></path></defs></svg>